<svg width="14" height="12" viewBox="0 0 14 12" fill="none" xmlns="http://www.w3.org/2000/svg">
<path d="M7 1L0.999951 5.07737" stroke="white" stroke-width="1.5" stroke-linecap="round"/>
<path d="M7 1L13 5.07737" stroke="white" stroke-width="1.5" stroke-linecap="round"/>
<path d="M2.6499 2.74744V3.49744H4.1499V2.74744H2.6499ZM4.1499 0.999995C4.1499 0.585781 3.81412 0.249995 3.3999 0.249995C2.98569 0.249995 2.6499 0.585781 2.6499 0.999995L4.1499 0.999995ZM3.3999 2.74744H4.1499V0.999995L3.3999 0.999995L2.6499 0.999995L2.6499 2.74744H3.3999Z" fill="white"/>
<path d="M3.3999 6.24231V9.90216C3.3999 10.4544 3.84762 10.9022 4.3999 10.9022H9.5999C10.1522 10.9022 10.5999 10.4544 10.5999 9.90215V6.24231" stroke="white" stroke-width="1.5" stroke-linecap="round"/>
<path d="M7 5.34961C7.91127 5.34961 8.65039 6.08873 8.65039 7V8C8.65039 8.35899 8.35899 8.65039 8 8.65039H6C5.64101 8.65039 5.34961 8.35899 5.34961 8V7C5.34961 6.08873 6.08873 5.34961 7 5.34961Z" stroke="white" stroke-width="0.7"/>
</svg>
