<svg width="35" height="35" viewBox="0 0 35 35" fill="none" xmlns="http://www.w3.org/2000/svg">
<circle cx="17.5" cy="17.5" r="16" stroke="white" stroke-width="3"/>
<path d="M17.5 8.95007V26.0501" stroke="white" stroke-linecap="round"/>
<path d="M8.9502 17.5H26.0502" stroke="white" stroke-linecap="round"/>
<path d="M12.2754 24.15L13.2254 22.8833L13.6803 22.2767C14.008 21.8398 14.4075 21.4619 14.8619 21.159L14.8897 21.1404C15.6628 20.625 16.5712 20.35 17.5004 20.35V20.35V20.35C18.4296 20.35 19.3379 20.625 20.1111 21.1404L20.1389 21.159C20.5932 21.4619 20.9928 21.8398 21.3204 22.2767L21.7754 22.8833L22.7254 24.15" stroke="white" stroke-linecap="round"/>
<path d="M12.2754 10.85L13.2254 12.1167L13.6803 12.7233C14.008 13.1602 14.4075 13.5381 14.8619 13.841L14.8897 13.8596C15.6628 14.375 16.5712 14.65 17.5004 14.65V14.65V14.65C18.4296 14.65 19.3379 14.375 20.1111 13.8596L20.1389 13.841C20.5932 13.5381 20.9928 13.1602 21.3204 12.7233L21.7754 12.1167L22.7254 10.85" stroke="white" stroke-linecap="round"/>
<path d="M17.9754 8.95007L16.0754 10.5046L15.237 11.1906C14.5343 11.7655 13.9336 12.4548 13.4601 13.2296V13.2296C12.6853 14.4974 12.2754 15.9544 12.2754 17.4403V17.5001V17.5599C12.2754 19.0457 12.6853 20.5027 13.4601 21.7706V21.7706C13.9336 22.5453 14.5343 23.2346 15.237 23.8096L16.0754 24.4955L17.9754 26.0501" stroke="white" stroke-linecap="round"/>
<path d="M17.0246 8.95007L18.9246 10.5046L19.763 11.1906C20.4657 11.7655 21.0664 12.4548 21.5399 13.2296V13.2296C22.3147 14.4974 22.7246 15.9544 22.7246 17.4403V17.5001V17.5599C22.7246 19.0457 22.3147 20.5027 21.5399 21.7706V21.7706C21.0664 22.5453 20.4657 23.2346 19.763 23.8096L18.9246 24.4955L17.0246 26.0501" stroke="white" stroke-linecap="round"/>
<path d="M17.5 8.75C22.3325 8.75 26.25 12.6675 26.25 17.5C26.25 22.3325 22.3325 26.25 17.5 26.25C12.6675 26.25 8.75 22.3325 8.75 17.5C8.75 12.6675 12.6675 8.75 17.5 8.75Z" stroke="white" stroke-width="1.5"/>
</svg>
