<svg width="26" height="22" viewBox="0 0 26 22" fill="none" xmlns="http://www.w3.org/2000/svg">
<path d="M18.8538 1.34118C17.0458 0.741095 12.2633 0.578538 5.02407 3.9209C4.26736 4.27027 3.62439 4.82792 3.14485 5.50962L1.91047 7.26439C1.31797 8.10667 1 9.11135 1 10.1411V13.0127C1 14.4724 1.63788 15.8592 2.74621 16.8092L6.23165 19.7964C7.13784 20.5731 8.29196 21 9.48544 21H19.9839C20.1552 21 20.3244 20.9615 20.4789 20.8872L24.4966 18.9562C24.6186 18.8976 24.5769 18.7143 24.4415 18.7143C24.3713 18.7143 24.3143 18.6573 24.3143 18.587V18.1125C24.3143 17.8048 24.0822 17.5467 23.7762 17.5141L22.6557 17.3948C22.3754 17.3649 22.2667 17.0144 22.4809 16.8312C22.7223 16.6247 22.5496 16.2305 22.2341 16.268L22.1126 16.2825C21.7562 16.3249 21.5657 15.8752 21.8441 15.6487L22.0356 15.4929C22.1698 15.3836 22.2255 15.2045 22.1768 15.0384L21.9143 14.1429L21.7737 13.44C21.6663 12.9029 21.1125 12.5816 20.5929 12.7548C20.1689 12.8961 19.705 12.7088 19.4979 12.3126L19.4409 12.2034C19.3241 11.98 19.1312 11.8057 18.8971 11.7122L18.2922 11.4706C17.7292 11.2456 17.5728 10.5223 17.9927 10.085L18.0783 9.99585C18.3143 9.74997 18.3411 9.37058 18.1419 9.09397C17.8311 8.66223 18.091 8.05482 18.618 7.98163L19.0668 7.9193C19.3507 7.87986 19.6032 7.71799 19.7575 7.47639L19.9514 7.17273C20.1422 6.87407 20.2384 6.52479 20.2274 6.17057L20.2046 5.43435C20.2016 5.3361 20.1804 5.23925 20.1423 5.14864C19.9811 4.76534 20.1441 4.32028 20.5123 4.12708C21.0189 3.86131 21.1067 3.16614 20.6756 2.79014L19.3692 1.65083C19.2161 1.5173 19.0466 1.40517 18.8538 1.34118Z" stroke="white" stroke-width="2" stroke-linecap="round"/>
<path d="M6.36446 10.8305C6.94226 10.6013 7.58576 10.6013 8.16356 10.8305L8.80404 11.0846C9.34705 11.3 9.70359 11.825 9.70359 12.4092C9.70359 12.9933 9.34705 13.5184 8.80404 13.7338L8.16356 13.9878C7.58576 14.217 6.94226 14.217 6.36446 13.9878L5.72398 13.7338C5.18097 13.5184 4.82443 12.9933 4.82443 12.4092C4.82443 11.825 5.18097 11.3 5.72398 11.0846L6.36446 10.8305Z" fill="white"/>
<path d="M6.55491 15.9153C6.84381 15.8007 7.16556 15.8007 7.45446 15.9153L7.7747 16.0423C8.04621 16.15 8.22448 16.4125 8.22448 16.7046C8.22448 16.9967 8.04621 17.2592 7.7747 17.3669L7.45446 17.4939C7.16556 17.6085 6.84381 17.6085 6.55491 17.4939L6.23467 17.3669C5.96316 17.2592 5.78489 16.9967 5.78489 16.7046C5.78489 16.4125 5.96316 16.15 6.23467 16.0423L6.55491 15.9153Z" fill="white"/>
<path d="M13.2268 9.56556C13.5157 9.45096 13.8374 9.45096 14.1263 9.56556L14.4466 9.6926C14.7181 9.8003 14.8964 10.0628 14.8964 10.3549C14.8964 10.647 14.7181 10.9095 14.4466 11.0172L14.1263 11.1442C13.8374 11.2588 13.5157 11.2588 13.2268 11.1442L12.9065 11.0172C12.635 10.9095 12.4568 10.647 12.4568 10.3549C12.4568 10.0628 12.635 9.8003 12.9065 9.6926L13.2268 9.56556Z" fill="white"/>
<path d="M10.4094 6.33973C10.6983 6.22513 11.0201 6.22513 11.309 6.33973L11.6292 6.46677C11.9007 6.57447 12.079 6.83697 12.079 7.12906C12.079 7.42114 11.9007 7.68365 11.6292 7.79135L11.309 7.91838C11.0201 8.03298 10.6983 8.03298 10.4094 7.91838L10.0892 7.79135C9.81766 7.68365 9.63939 7.42114 9.63939 7.12906C9.63939 6.83697 9.81766 6.57447 10.0892 6.46677L10.4094 6.33973Z" fill="white"/>
<path d="M5.47996 6.98481C5.76886 6.87021 6.09061 6.87021 6.37951 6.98481L6.69975 7.11185C6.97126 7.21955 7.14953 7.48205 7.14953 7.77414C7.14953 8.06622 6.97126 8.32873 6.69975 8.43643L6.37951 8.56346C6.09061 8.67806 5.76886 8.67806 5.47996 8.56346L5.15972 8.43643C4.88821 8.32873 4.70994 8.06622 4.70994 7.77414C4.70994 7.48205 4.88821 7.21955 5.15972 7.11185L5.47996 6.98481Z" fill="white"/>
<path d="M12.5222 12.7913C12.8111 12.6767 13.1328 12.6767 13.4217 12.7913L13.742 12.9183C14.0135 13.026 14.1918 13.2885 14.1918 13.5806C14.1918 13.8727 14.0135 14.1352 13.742 14.2429L13.4217 14.3699C13.1328 14.4845 12.8111 14.4845 12.5222 14.3699L12.202 14.2429C11.9304 14.1352 11.7522 13.8727 11.7522 13.5806C11.7522 13.2885 11.9304 13.026 12.202 12.9183L12.5222 12.7913Z" fill="white"/>
<path d="M11.1142 17.3074C11.4031 17.1928 11.7249 17.1928 12.0138 17.3074L12.334 17.4345C12.6055 17.5422 12.7838 17.8047 12.7838 18.0968C12.7838 18.3889 12.6055 18.6514 12.334 18.7591L12.0138 18.8861C11.7249 19.0007 11.4031 19.0007 11.1142 18.8861L10.794 18.7591C10.5225 18.6514 10.3442 18.3889 10.3442 18.0968C10.3442 17.8047 10.5225 17.5422 10.794 17.4345L11.1142 17.3074Z" fill="white"/>
<path d="M15.5568 15.0411C16.1346 14.8119 16.7781 14.8119 17.3559 15.0411L17.9964 15.2952C18.5394 15.5106 18.896 16.0356 18.896 16.6197C18.896 17.2039 18.5394 17.7289 17.9964 17.9443L17.3559 18.1984C16.7781 18.4276 16.1346 18.4276 15.5568 18.1984L14.9164 17.9443C14.3734 17.7289 14.0168 17.2039 14.0168 16.6197C14.0168 16.0356 14.3734 15.5106 14.9164 15.2952L15.5568 15.0411Z" fill="white"/>
<path d="M14.1855 3.93759C14.7633 3.70838 15.4068 3.70838 15.9846 3.93759L16.6251 4.19165C17.1681 4.40706 17.5246 4.93206 17.5246 5.51623C17.5246 6.10041 17.1681 6.62541 16.6251 6.84081L15.9846 7.09488C15.4068 7.32408 14.7633 7.32408 14.1855 7.09488L13.545 6.84081C13.002 6.62541 12.6455 6.10041 12.6455 5.51623C12.6455 4.93206 13.002 4.40706 13.545 4.19165L14.1855 3.93759Z" fill="white"/>
</svg>
