<svg width="40" height="40" viewBox="0 0 40 40" fill="none" xmlns="http://www.w3.org/2000/svg">
<circle cx="20" cy="20" r="18.5" stroke="white" stroke-width="3"/>
<path d="M13.6408 18.2866L15.2884 26.9786L13.4323 27.66L9.61188 24.1781L9.56387 24.1957L10.424 28.7644L8.19986 29.5809L6.55228 20.889L8.44042 20.1958L12.2229 23.6735L12.2869 23.65L11.4167 19.1032L13.6408 18.2866ZM16.3405 26.5923L14.6929 17.9004L20.5974 15.7328L20.9513 17.6365L17.271 18.9876L17.5639 20.478L20.9402 19.2385L21.2941 21.1422L17.9178 22.3817L18.2107 23.8721L21.875 22.5268L22.2289 24.4306L16.3405 26.5923ZM25.4282 23.2561L21.3644 15.4512L23.8446 14.5406L25.9831 19.4753L26.0471 19.4518L26.3568 13.6183L28.3089 12.9017L30.6613 17.776L30.7253 17.7525L30.8211 11.9794L33.3013 11.0689L32.5327 20.6478L30.4046 21.4291L28.1004 17.0819L28.0364 17.1054L27.5563 22.4748L25.4282 23.2561Z" fill="white"/>
</svg>
