<svg width="35" height="35" viewBox="0 0 35 35" fill="none" xmlns="http://www.w3.org/2000/svg">
<circle cx="17.5" cy="17.5" r="16" stroke="white" stroke-width="3"/>
<path d="M17.4999 10.5L18.6999 11.4C19.2192 11.7895 19.8508 12 20.4999 12V12H20.8374C21.2731 12 21.7028 11.8986 22.0926 11.7037L22.3219 11.589C22.4398 11.5301 22.5475 11.4525 22.6407 11.3593L22.8964 11.1036C22.9627 11.0373 23.0526 11 23.1464 11V11C23.3417 11 23.5 11.1583 23.5 11.3536V20.3844C23.5 20.7933 23.4499 21.2006 23.3507 21.5972L23.3358 21.6566C23.116 22.5356 22.6615 23.3385 22.0208 23.9792L21.6809 24.3191C21.2311 24.7689 20.6996 25.1287 20.1149 25.3793L17.5 26.5" stroke="white" stroke-width="2" stroke-linecap="round"/>
<path d="M17.5 10.5L16.3 11.4C15.7807 11.7895 15.1491 12 14.5 12V12H14.1626C13.7269 12 13.2971 11.8986 12.9074 11.7037L12.6781 11.589C12.5602 11.5301 12.4525 11.4525 12.3593 11.3593L12.1036 11.1036C12.0373 11.0373 11.9474 11 11.8536 11V11C11.6583 11 11.5 11.1583 11.5 11.3536V20.3844C11.5 20.7932 11.5501 21.2006 11.6493 21.5972L11.6642 21.6566C11.884 22.5356 12.3385 23.3384 12.9792 23.9792L13.3191 24.3191C13.7689 24.7689 14.3004 25.1287 14.8851 25.3793L17.4999 26.5" stroke="white" stroke-width="2" stroke-linecap="round"/>
</svg>
