<svg width="35" height="35" viewBox="0 0 35 35" fill="none" xmlns="http://www.w3.org/2000/svg">
<path d="M12 14.5V12.4635C12 11.5135 12.3081 10.5892 12.8781 9.82918V9.82918C13.2871 9.28389 13.8174 8.8413 14.4271 8.53647L14.5 8.5C15.1576 8.17119 15.8828 8 16.618 8H17.5H18.3197C19.0959 8 19.8615 8.18073 20.5557 8.52786L20.7879 8.64394C21.2595 8.87977 21.6901 9.1901 22.063 9.56298L22.0858 9.58579C22.9913 10.4913 23.5 11.7194 23.5 13V13V14.5" stroke="white" stroke-width="2" stroke-linecap="round"/>
<path d="M18 25H19C19.5523 25 20 25.4477 20 26C20 26.5523 19.5523 27 19 27H18H17.4142C17.149 27 16.8946 26.8946 16.7071 26.7071C16.3166 26.3166 16.3166 25.6834 16.7071 25.2929C16.8946 25.1054 17.149 25 17.4142 25H18Z" stroke="white" stroke-width="2" stroke-linecap="round"/>
<path d="M23 22V23.5V24.691C23 24.8942 22.9527 25.0946 22.8618 25.2764V25.2764C22.6401 25.7199 22.1868 26 21.691 26H21" stroke="white" stroke-linecap="round"/>
<path d="M17.5 1.5C26.3366 1.5 33.5 8.66344 33.5 17.5C33.5 26.3366 26.3366 33.5 17.5 33.5C8.66344 33.5 1.5 26.3366 1.5 17.5C1.5 8.66344 8.66344 1.5 17.5 1.5Z" stroke="white" stroke-width="3"/>
<path d="M14.5 19.5V17.5C14.5 16.1193 13.3807 15 12 15C10.6193 15 9.5 16.1193 9.5 17.5V19.5C9.5 20.8807 10.6193 22 12 22C13.3807 22 14.5 20.8807 14.5 19.5Z" stroke="white" stroke-width="2" stroke-linecap="round"/>
<path d="M21 18.5V19.75C21 20.9926 22.0074 22 23.25 22C24.4926 22 25.5 20.9926 25.5 19.75V18.5V17.25C25.5 16.0074 24.4926 15 23.25 15C22.0074 15 21 16.0074 21 17.25V18.5Z" stroke="white" stroke-width="2" stroke-linecap="round"/>
</svg>
