<svg width="35" height="35" viewBox="0 0 35 35" fill="none" xmlns="http://www.w3.org/2000/svg">
<path d="M17 17.5H22.5" stroke="white" stroke-linecap="round"/>
<path d="M17 19.5H21" stroke="white" stroke-width="0.5" stroke-linecap="round"/>
<path d="M17 22H22.5" stroke="white" stroke-linecap="round"/>
<path d="M17 24H21.5" stroke="white" stroke-width="0.5" stroke-linecap="round"/>
<path d="M12 15.5H22.5" stroke="white" stroke-width="0.5" stroke-linecap="round"/>
<path d="M12.5 17.5L13.5 19" stroke="white" stroke-width="0.5" stroke-linecap="round"/>
<path d="M13.5 19L15 17" stroke="white" stroke-width="0.5" stroke-linecap="round"/>
<path d="M12.5 22L13.5 23.5" stroke="white" stroke-width="0.5" stroke-linecap="round"/>
<path d="M13.5 23.5L15 21.5" stroke="white" stroke-width="0.5" stroke-linecap="round"/>
<path d="M22.5 11.75V11.75C22.5 11.3358 22.1642 11 21.75 11H21.3H21.25C20.8358 11 20.5 11.3358 20.5 11.75V11.75V13.25V13.25C20.5 13.6642 20.8358 14 21.25 14H21.3H21.75C22.1642 14 22.5 13.6642 22.5 13.25V13.25" stroke="white" stroke-width="0.5" stroke-linecap="round"/>
<path d="M17.1768 12.6768L17.3536 12.5L17 12.1464L16.8232 12.3232L17.1768 12.6768ZM19.1768 12.6768C19.2744 12.5791 19.2744 12.4209 19.1768 12.3232C19.0791 12.2256 18.9209 12.2256 18.8232 12.3232L19.1768 12.6768ZM16.6768 13.6768L16.5 13.8536L16.6768 13.6768ZM17.6768 13.8232L17.8536 14L18.1768 13.6768L18 13.5L17.8232 13.3232L17.5 13.6464L17.6768 13.8232ZM18 13.5L18.1768 13.6768L19.1768 12.6768L19 12.5L18.8232 12.3232L17.8232 13.3232L18 13.5ZM17 12.5L16.8232 12.3232L16.5 12.6464L16.6768 12.8232L16.8536 13L17.1768 12.6768L17 12.5ZM16.6768 13.6768L16.5 13.8536L16.6464 14L16.8232 13.8232L17 13.6464L16.8536 13.5L16.6768 13.6768ZM17.6768 13.8232L17.5 13.6464C17.4337 13.7128 17.3438 13.75 17.25 13.75V14V14.25C17.4764 14.25 17.6935 14.1601 17.8536 14L17.6768 13.8232ZM16.5 13.25H16.25C16.25 13.4764 16.3399 13.6935 16.5 13.8536L16.6768 13.6768L16.8536 13.5C16.7872 13.4337 16.75 13.3438 16.75 13.25H16.5ZM17.25 14V13.75C17.1562 13.75 17.0663 13.7128 17 13.6464L16.8232 13.8232L16.6464 14C16.8065 14.1601 17.0236 14.25 17.25 14.25V14ZM16.5 13.25H16.75C16.75 13.1562 16.7872 13.0663 16.8536 13L16.6768 12.8232L16.5 12.6464C16.3399 12.8065 16.25 13.0236 16.25 13.25H16.5Z" fill="white"/>
<path d="M18.5 11.5L18.2252 11.2252C18.081 11.081 17.8854 11 17.6815 11H17.6626C17.5557 11 17.4502 11.0249 17.3546 11.0727V11.0727C16.9342 11.2829 16.8432 11.8432 17.1756 12.1756L17.5 12.5L18.2 13.1429L19 14" stroke="white" stroke-width="0.5" stroke-linecap="round"/>
<path d="M12 11H13.5M15 11H13.5M13.5 11V14" stroke="white" stroke-width="0.5" stroke-linecap="round"/>
<path d="M22.3125 9H12.5C11.3954 9 10.5 9.89543 10.5 11V24C10.5 25.1046 11.3954 26 12.5 26H22.3125C23.4171 26 24.3125 25.1046 24.3125 24V11C24.3125 9.89543 23.4171 9 22.3125 9Z" stroke="white" stroke-linecap="round"/>
<circle cx="17.5" cy="17.5" r="16" stroke="white" stroke-width="3"/>
</svg>
