<svg width="25" height="25" viewBox="0 0 25 25" fill="none" xmlns="http://www.w3.org/2000/svg">
<path d="M7.39819 10.9865C7.39819 13.1124 10.473 13.2896 10.473 10.9865" stroke="white" stroke-width="0.7" stroke-linecap="round"/>
<path d="M10.8088 15.0092C10.8088 16.6876 13.7822 16.8275 13.7822 15.0092" stroke="white" stroke-width="0.7" stroke-linecap="round"/>
<path d="M8.03261 12.5891L8.23604 12.3043L7.66643 11.8974L7.463 12.1822L8.03261 12.5891ZM7.02573 12.7944C6.91338 12.9517 6.94981 13.1703 7.10711 13.2827C7.2644 13.395 7.48299 13.3586 7.59535 13.2013L7.02573 12.7944ZM7.7478 12.3857L7.463 12.1822L7.02573 12.7944L7.31054 12.9978L7.59535 13.2013L8.03261 12.5891L7.7478 12.3857Z" fill="white"/>
<path d="M9.05701 12.7789L9.10043 12.4316L8.40583 12.3448L8.36242 12.6921L9.05701 12.7789ZM8.27497 13.3917C8.25099 13.5835 8.38705 13.7584 8.57885 13.7824C8.77066 13.8064 8.94559 13.6703 8.96956 13.4785L8.27497 13.3917ZM8.70972 12.7355L8.36242 12.6921L8.27497 13.3917L8.62226 13.4351L8.96956 13.4785L9.05701 12.7789L8.70972 12.7355Z" fill="white"/>
<path d="M9.99333 12.5101L9.85546 12.1884L9.21206 12.4642L9.34993 12.7859L9.99333 12.5101ZM9.61229 13.398C9.68843 13.5757 9.89419 13.658 10.0719 13.5819C10.2495 13.5057 10.3318 13.3 10.2557 13.1223L9.61229 13.398ZM9.67163 12.648L9.34993 12.7859L9.61229 13.398L9.93399 13.2602L10.2557 13.1223L9.99333 12.5101L9.67163 12.648Z" fill="white"/>
<path d="M17.2068 10.9865C17.2068 13.1124 14.132 13.2896 14.132 10.9865" stroke="white" stroke-width="0.7" stroke-linecap="round"/>
<path d="M16.5719 12.5891L16.3684 12.3043L16.9381 11.8974L17.1415 12.1822L16.5719 12.5891ZM17.5788 12.7944C17.6911 12.9517 17.6547 13.1703 17.4974 13.2827C17.3401 13.395 17.1215 13.3586 17.0091 13.2013L17.5788 12.7944ZM16.8567 12.3857L17.1415 12.1822L17.5788 12.7944L17.294 12.9978L17.0091 13.2013L16.5719 12.5891L16.8567 12.3857Z" fill="white"/>
<path d="M15.5477 12.7789L15.5043 12.4316L16.1989 12.3448L16.2423 12.6921L15.5477 12.7789ZM16.3298 13.3917C16.3537 13.5835 16.2177 13.7584 16.0259 13.7824C15.8341 13.8064 15.6592 13.6703 15.6352 13.4785L16.3298 13.3917ZM15.895 12.7355L16.2423 12.6921L16.3298 13.3917L15.9825 13.4351L15.6352 13.4785L15.5477 12.7789L15.895 12.7355Z" fill="white"/>
<path d="M14.6114 12.5101L14.7493 12.1884L15.3927 12.4642L15.2548 12.7859L14.6114 12.5101ZM14.9924 13.398C14.9163 13.5757 14.7105 13.658 14.5329 13.5819C14.3552 13.5057 14.2729 13.3 14.349 13.1223L14.9924 13.398ZM14.9331 12.648L15.2548 12.7859L14.9924 13.398L14.6707 13.2602L14.349 13.1223L14.6114 12.5101L14.9331 12.648Z" fill="white"/>
<path d="M13.1761 0.358994C13.4103 0.150961 13.9024 -0.0782218 14.3812 0.0259864C15.0115 0.163318 15.2707 0.556359 15.3499 0.83751L15.6819 0.966416C16.0456 1.1141 16.365 1.25246 16.6409 1.38927C17.1923 1.66267 17.6351 1.95836 17.9378 2.36485C18.2503 2.78484 18.3691 3.26256 18.3968 3.80724C18.4205 4.27372 18.3764 4.82949 18.3118 5.48985C18.3445 5.53599 18.3699 5.57974 18.387 5.61681C18.4384 5.72809 18.4634 5.84307 18.4759 5.93517C18.5012 6.12207 18.4934 6.32894 18.473 6.50841C18.4524 6.68863 18.415 6.88026 18.3597 7.03868C18.3545 7.05345 18.3466 7.06899 18.3401 7.08556L22.3909 7.96251L22.5804 8.01036C24.4374 8.54632 25.1719 10.8074 23.9847 12.3326L23.8597 12.483L20.7464 15.9674C20.5127 16.2291 20.3995 16.5773 20.4349 16.9264L20.9056 21.5748L20.9183 21.7701C20.982 23.7017 19.0589 25.0991 17.2415 24.441L17.0599 24.3678L12.7845 22.484C12.5035 22.3602 12.1883 22.3452 11.8987 22.4381L11.7767 22.484L7.5003 24.3678C5.57184 25.2172 3.44355 23.6714 3.65558 21.5748L4.12628 16.9264L4.13312 16.7955C4.13218 16.5347 4.04931 16.2805 3.89679 16.069L3.81476 15.9674L0.701475 12.483C-0.702753 10.9114 0.110538 8.40874 2.17022 7.96251L6.73663 6.97423L6.86358 6.94005C7.15215 6.84501 7.39754 6.64649 7.55206 6.38146L7.89483 5.79161L7.75226 5.67149L7.67804 5.58946C7.55232 5.41795 7.53881 5.18836 7.63995 5.00255C7.6416 4.98941 7.64208 4.97626 7.64386 4.96349C7.66399 4.81896 7.69965 4.63818 7.7503 4.46056C7.79945 4.28829 7.87115 4.08667 7.96905 3.91661C8.01757 3.83235 8.08777 3.72865 8.18683 3.64122C8.21424 3.61705 8.24733 3.59282 8.28448 3.56896C8.5601 2.8962 8.79651 2.33141 9.04815 1.88536C9.32964 1.38649 9.6566 0.984605 10.1312 0.71544C10.5978 0.450896 11.1472 0.349001 11.806 0.325791C12.1994 0.311934 12.6522 0.32633 13.1761 0.358994ZM8.84894 7.13634C8.48463 7.76165 7.88924 8.21684 7.19464 8.40587L7.05401 8.44005L2.48761 9.42931C1.55162 9.63232 1.18242 10.7687 1.82062 11.483L4.93292 14.9674L5.02667 15.0777C5.44759 15.6017 5.66179 16.262 5.62921 16.9332L5.61847 17.0768L5.14776 21.7262C5.05176 22.6789 6.01941 23.3817 6.89581 22.9957L11.1712 21.1109L11.305 21.0563C11.9779 20.801 12.7268 20.8194 13.389 21.1109L17.6653 22.9957L17.8304 23.0553C18.6035 23.2771 19.3914 22.7049 19.4192 21.901L19.4134 21.7262L18.9427 17.0768C18.865 16.3088 19.113 15.543 19.6273 14.9674L22.7405 11.483L22.8489 11.3453C23.2989 10.6787 22.9982 9.75229 22.2425 9.47716L22.0735 9.42931L17.0276 8.33653C16.6995 8.26543 16.4045 8.09521 16.179 7.85411C16.0664 7.86176 15.9517 7.86939 15.8362 7.87364C14.9775 7.90523 13.995 7.84696 13.0062 7.70079C11.6879 7.50589 10.2992 7.14396 9.16534 6.59239L8.84894 7.13634ZM8.8089 4.76231C8.7785 4.86889 8.75591 4.97611 8.74151 5.06212C9.74433 5.81859 11.4275 6.35578 13.1663 6.6129C14.0967 6.75046 15.0116 6.80283 15.7952 6.77403C16.4555 6.74972 16.9867 6.66701 17.3509 6.5504C17.3616 6.50152 17.3732 6.44491 17.3802 6.38341C17.3848 6.34287 17.3863 6.30414 17.388 6.26817C16.0958 6.49359 14.4477 6.42133 12.9007 6.1461C11.3852 5.87645 9.8681 5.39357 8.82062 4.72423C8.81682 4.73662 8.81261 4.74931 8.8089 4.76231ZM14.1575 1.5631L14.0364 1.58556C13.7571 1.65439 13.506 1.8352 13.2757 2.1256C13.0089 2.46226 12.7978 2.91365 12.636 3.39122C12.476 3.86403 12.3737 4.33471 12.3118 4.69005C12.2991 4.76325 12.2901 4.83152 12.2806 4.89317C12.5457 4.95518 12.8169 5.01394 13.0931 5.0631C14.5953 5.33034 16.1216 5.37871 17.2376 5.17638C17.2888 4.62251 17.3154 4.2026 17.2982 3.8629C17.277 3.44795 17.1936 3.20741 17.055 3.0211C16.9063 2.82159 16.6477 2.6201 16.1526 2.37462C15.9053 2.25197 15.6135 2.12585 15.2689 1.98595L14.1722 1.55919C14.1674 1.55993 14.1624 1.56248 14.1575 1.5631ZM8.50226 4.79649C8.49178 4.78913 8.48064 4.78195 8.46905 4.77501L8.40948 4.74376C8.44253 4.75842 8.47369 4.77654 8.50226 4.79649ZM11.8441 1.4254C11.2644 1.44587 10.9184 1.53339 10.6732 1.67247C10.4361 1.80707 10.233 2.02441 10.0062 2.42638C9.81412 2.76686 9.62569 3.20399 9.38702 3.78185C9.86184 4.09009 10.4927 4.36583 11.2132 4.59825C11.2183 4.56709 11.2221 4.53465 11.2278 4.50157C11.2958 4.11113 11.4101 3.58104 11.5941 3.03771C11.7765 2.49922 12.0381 1.91675 12.4144 1.442C12.4184 1.43689 12.423 1.43147 12.4271 1.42638C12.2143 1.42084 12.0208 1.41917 11.8441 1.4254Z" fill="white"/>
</svg>
